<?xml version="1.0" encoding="UTF-8"?>
<svg xmlns="http://www.w3.org/2000/svg" xmlns:xlink="http://www.w3.org/1999/xlink" width="18px" height="18px" viewBox="0 0 18 18" version="1.1">
<g id="surface1">
<path style=" stroke:none;fill-rule:nonzero;fill:rgb(13.72549%,12.156863%,12.54902%);fill-opacity:1;" d="M 13.5 1.40625 C 12.257812 1.40625 11.132812 1.910156 10.316406 2.722656 L 9.199219 3.839844 C 9.089844 3.949219 8.910156 3.949219 8.800781 3.839844 C 8.800781 3.839844 7.683594 2.722656 7.683594 2.722656 C 6.867188 1.910156 5.742188 1.40625 4.5 1.40625 C 2.015625 1.40625 0 3.421875 0 5.90625 C 0 6.84375 0.289062 7.714844 0.78125 8.4375 C 0.78125 8.4375 0.988281 8.765625 1.230469 9.007812 C 1.472656 9.253906 8.203125 15.984375 8.203125 15.984375 C 8.425781 16.203125 8.710938 16.3125 9 16.3125 C 9.289062 16.3125 9.574219 16.203125 9.796875 15.984375 C 9.796875 15.984375 16.527344 9.253906 16.769531 9.007812 C 17.011719 8.765625 17.21875 8.4375 17.21875 8.4375 C 17.710938 7.714844 18 6.84375 18 5.90625 C 18 3.421875 15.984375 1.40625 13.5 1.40625 Z M 16.03125 6.1875 C 15.875 6.1875 15.75 6.0625 15.75 5.90625 C 15.75 4.664062 14.742188 3.65625 13.5 3.65625 C 13.34375 3.65625 13.21875 3.53125 13.21875 3.375 C 13.21875 3.21875 13.34375 3.09375 13.5 3.09375 C 15.054688 3.09375 16.3125 4.351562 16.3125 5.90625 C 16.3125 6.0625 16.1875 6.1875 16.03125 6.1875 Z M 16.03125 6.1875 "/>
</g>
</svg>
